<svg width="35" height="35" viewBox="0 0 35 35" fill="none" xmlns="http://www.w3.org/2000/svg">
<circle cx="17.5" cy="17.5" r="17.5" fill="#D74307"/>
<path d="M9.51885 34.6777C10.7824 34.6777 11.8067 33.6534 11.8067 32.3899C11.8067 31.1263 10.7824 30.1021 9.51885 30.1021C8.25532 30.1021 7.23102 31.1263 7.23102 32.3899C7.23102 33.6534 8.25532 34.6777 9.51885 34.6777Z" fill="black"/>
<path d="M25.5823 34.6777C26.8458 34.6777 27.8701 33.6534 27.8701 32.3899C27.8701 31.1263 26.8458 30.1021 25.5823 30.1021C24.3187 30.1021 23.2944 31.1263 23.2944 32.3899C23.2944 33.6534 24.3187 34.6777 25.5823 34.6777Z" fill="black"/>
<path d="M25.273 22.3653C25.808 22.3653 26.266 22.0498 26.4812 21.5968L26.4824 21.5976L32.1501 11.7804L32.1431 11.7765C32.2263 11.6021 32.2768 11.409 32.2768 11.2027C32.2768 10.4618 31.6766 9.86162 30.9357 9.86162H25.273H14.1683H10.1164V7.34108C10.1164 6.60022 9.51614 6 8.77528 6H1.44791V6.01088C1.41217 6.00777 1.3776 6 1.34108 6C0.656165 6 0.0971235 6.51553 0.016317 7.17908H0V8.52015C0 9.26101 0.600222 9.86123 1.34108 9.86123C1.3776 9.86123 1.41217 9.85307 1.44791 9.85035V9.86123H6.25474V26.8512C6.25668 27.5901 6.85651 28.1884 7.59582 28.1884H7.59659H30.6164V28.1554C31.2508 28.1154 31.7616 27.6391 31.8537 27.0202H31.8727V26.8298C31.8727 26.8275 31.8735 26.8252 31.8735 26.8228C31.8735 26.8205 31.8727 26.8182 31.8727 26.8158V25.6496C31.8727 25.6473 31.8735 25.6449 31.8735 25.6426C31.8735 24.9305 31.3172 24.3544 30.6164 24.3105V24.3019H10.116V22.3641H25.273V22.3653Z" fill="black"/>
</svg>
