<svg width="29" height="26" viewBox="0 0 29 26" fill="none" xmlns="http://www.w3.org/2000/svg">
<path d="M8.33927 25.1238C9.44622 25.1238 10.3436 24.2264 10.3436 23.1195C10.3436 22.0125 9.44622 21.1152 8.33927 21.1152C7.23232 21.1152 6.33496 22.0125 6.33496 23.1195C6.33496 24.2264 7.23232 25.1238 8.33927 25.1238Z" fill="white"/>
<path d="M22.4119 25.1238C23.5188 25.1238 24.4162 24.2264 24.4162 23.1195C24.4162 22.0125 23.5188 21.1152 22.4119 21.1152C21.305 21.1152 20.4076 22.0125 20.4076 23.1195C20.4076 24.2264 21.305 25.1238 22.4119 25.1238Z" fill="white"/>
<path d="M22.141 14.3372C22.6096 14.3372 23.0109 14.0608 23.1995 13.6639L23.2005 13.6646L28.1658 5.06404L28.1597 5.06063C28.2325 4.90782 28.2768 4.73866 28.2768 4.55794C28.2768 3.9089 27.7509 3.38306 27.1019 3.38306H22.141H12.4125H8.86266V1.17488C8.86266 0.525837 8.33682 0 7.68778 0H1.26848V0.00953003C1.23716 0.00680724 1.20687 0 1.17488 0C0.574848 0 0.0850872 0.451642 0.0142949 1.03296H0V2.20784C0 2.85688 0.525838 3.38272 1.17488 3.38272C1.20687 3.38272 1.23716 3.37557 1.26848 3.37319V3.38272H5.4796V18.2672C5.4813 18.9145 6.0068 19.4386 6.65448 19.4386H6.65516H26.8221V19.4097C27.3779 19.3746 27.8255 18.9574 27.9061 18.4152H27.9228V18.2484C27.9228 18.2464 27.9235 18.2444 27.9235 18.2423C27.9235 18.2403 27.9228 18.2382 27.9228 18.2362V17.2145C27.9228 17.2124 27.9235 17.2104 27.9235 17.2083C27.9235 16.5845 27.4361 16.0797 26.8221 16.0413V16.0338H8.86232V14.3361H22.141V14.3372Z" fill="white"/>
</svg>
