<svg width="195" height="56" viewBox="0 0 195 56" fill="none" xmlns="http://www.w3.org/2000/svg">
<rect width="194.277" height="55.1238" rx="5" fill="#D74307"/>
<path d="M38.3393 40.1238C39.4462 40.1238 40.3436 39.2264 40.3436 38.1195C40.3436 37.0125 39.4462 36.1152 38.3393 36.1152C37.2323 36.1152 36.335 37.0125 36.335 38.1195C36.335 39.2264 37.2323 40.1238 38.3393 40.1238Z" fill="white"/>
<path d="M52.4119 40.1238C53.5188 40.1238 54.4162 39.2264 54.4162 38.1195C54.4162 37.0125 53.5188 36.1152 52.4119 36.1152C51.305 36.1152 50.4076 37.0125 50.4076 38.1195C50.4076 39.2264 51.305 40.1238 52.4119 40.1238Z" fill="white"/>
<path d="M52.141 29.3372C52.6096 29.3372 53.0109 29.0608 53.1995 28.6639L53.2005 28.6646L58.1658 20.064L58.1597 20.0606C58.2325 19.9078 58.2768 19.7387 58.2768 19.5579C58.2768 18.9089 57.7509 18.3831 57.1019 18.3831H52.141H42.4125H38.8627V16.1749C38.8627 15.5258 38.3368 15 37.6878 15H31.2685V15.0095C31.2372 15.0068 31.2069 15 31.1749 15C30.5748 15 30.0851 15.4516 30.0143 16.033H30V17.2078C30 17.8569 30.5258 18.3827 31.1749 18.3827C31.2069 18.3827 31.2372 18.3756 31.2685 18.3732V18.3827H35.4796V33.2672C35.4813 33.9145 36.0068 34.4386 36.6545 34.4386H36.6552H56.8221V34.4097C57.3779 34.3746 57.8255 33.9574 57.9061 33.4152H57.9228V33.2484C57.9228 33.2464 57.9235 33.2444 57.9235 33.2423C57.9235 33.2403 57.9228 33.2382 57.9228 33.2362V32.2145C57.9228 32.2124 57.9235 32.2104 57.9235 32.2083C57.9235 31.5845 57.4361 31.0797 56.8221 31.0413V31.0338H38.8623V29.3361H52.141V29.3372Z" fill="white"/>
<path d="M81.6849 32.5019C81.7275 32.5659 81.7489 32.6352 81.7489 32.7099C81.7489 32.8059 81.7115 32.8912 81.6369 32.9659C81.5729 33.0299 81.4929 33.0619 81.3969 33.0619H77.2689C77.0235 33.0619 76.8315 32.9766 76.6929 32.8059L74.2289 29.2379H73.7489V32.6299C73.7489 32.7472 73.7062 32.8486 73.6209 32.9339C73.5355 33.0192 73.4342 33.0619 73.3169 33.0619H70.0209C69.9035 33.0619 69.8022 33.0192 69.7169 32.9339C69.6315 32.8486 69.5889 32.7472 69.5889 32.6299V22.2939C69.5889 22.1766 69.6315 22.0752 69.7169 21.9899C69.8022 21.9046 69.9035 21.8619 70.0209 21.8619H73.3169C73.4342 21.8619 73.5355 21.9046 73.6209 21.9899C73.7062 22.0752 73.7489 22.1766 73.7489 22.2939V25.5899H74.1009L76.4369 22.1339C76.5969 21.9526 76.7942 21.8619 77.0289 21.8619H80.8849C80.9809 21.8619 81.0609 21.8992 81.1249 21.9739C81.1995 22.0379 81.2369 22.1179 81.2369 22.2139C81.2369 22.2992 81.2102 22.3739 81.1569 22.4379L77.3649 27.0619L81.6849 32.5019ZM94.6226 28.4379C94.6226 30.0699 94.0786 31.2752 92.9906 32.0539C91.9133 32.8326 90.4733 33.2219 88.6706 33.2219C86.8679 33.2219 85.4226 32.8326 84.3346 32.0539C83.2573 31.2752 82.7186 30.0592 82.7186 28.4059V26.5179C82.7186 25.4299 82.9746 24.5286 83.4866 23.8139C84.0093 23.0886 84.7186 22.5552 85.6146 22.2139C86.5106 21.8726 87.5293 21.7019 88.6706 21.7019C89.8119 21.7019 90.8253 21.8726 91.7106 22.2139C92.6066 22.5552 93.3159 23.0832 93.8386 23.7979C94.3613 24.5126 94.6226 25.4086 94.6226 26.4859V28.4379ZM87.0386 28.7419C87.0386 29.1792 87.1826 29.5152 87.4706 29.7499C87.7693 29.9846 88.1693 30.1019 88.6706 30.1019C89.1719 30.1019 89.5666 29.9846 89.8546 29.7499C90.1533 29.5046 90.3026 29.1632 90.3026 28.7259V26.1979C90.3026 25.7606 90.1533 25.4246 89.8546 25.1899C89.5666 24.9446 89.1719 24.8219 88.6706 24.8219C88.1693 24.8219 87.7693 24.9392 87.4706 25.1739C87.1826 25.4086 87.0386 25.7446 87.0386 26.1819V28.7419ZM103.896 21.8619C104.899 21.8619 105.774 22.0326 106.52 22.3739C107.267 22.7152 107.838 23.1792 108.232 23.7659C108.627 24.3526 108.824 25.0086 108.824 25.7339C108.824 26.9286 108.451 27.8672 107.704 28.5499C106.958 29.2219 105.688 29.5579 103.896 29.5579H101.784V32.6299C101.784 32.7472 101.742 32.8486 101.656 32.9339C101.571 33.0192 101.47 33.0619 101.352 33.0619H97.9124C97.795 33.0619 97.6937 33.0192 97.6084 32.9339C97.523 32.8486 97.4804 32.7472 97.4804 32.6299V22.2939C97.4804 22.1766 97.523 22.0752 97.6084 21.9899C97.6937 21.9046 97.795 21.8619 97.9124 21.8619H103.896ZM103.832 26.5979C104.088 26.5979 104.291 26.5232 104.44 26.3739C104.59 26.2139 104.664 26.0059 104.664 25.7499C104.664 25.4832 104.59 25.2646 104.44 25.0939C104.291 24.9232 104.088 24.8379 103.832 24.8379H101.8V26.5979H103.832ZM119.906 27.4619C120.087 27.5152 120.301 27.6432 120.546 27.8459C120.802 28.0486 121.021 28.3152 121.202 28.6459C121.394 28.9659 121.49 29.3179 121.49 29.7019C121.49 30.4272 121.25 31.0566 120.77 31.5899C120.301 32.1126 119.645 32.5179 118.802 32.8059C117.959 33.0832 117.005 33.2219 115.938 33.2219C114.669 33.2219 113.618 33.0459 112.786 32.6939C111.965 32.3312 111.362 31.8939 110.978 31.3819C110.605 30.8699 110.418 30.3739 110.418 29.8939C110.418 29.7872 110.45 29.7019 110.514 29.6379C110.589 29.5739 110.674 29.5419 110.77 29.5419H114.274C114.391 29.5419 114.514 29.6059 114.642 29.7339C114.791 29.8832 114.941 29.9846 115.09 30.0379C115.239 30.0912 115.527 30.1179 115.954 30.1179C116.317 30.1179 116.61 30.0592 116.834 29.9419C117.058 29.8246 117.17 29.6539 117.17 29.4299C117.17 29.2699 117.063 29.1419 116.85 29.0459C116.637 28.9392 116.333 28.8859 115.938 28.8859H114.258C114.141 28.8859 114.039 28.8432 113.954 28.7579C113.869 28.6726 113.826 28.5712 113.826 28.4539V26.4859C113.826 26.3686 113.869 26.2672 113.954 26.1819C114.039 26.0966 114.141 26.0539 114.258 26.0539H115.938C116.333 26.0539 116.637 26.0059 116.85 25.9099C117.063 25.8032 117.17 25.6699 117.17 25.5099C117.17 25.2859 117.058 25.1152 116.834 24.9979C116.61 24.8806 116.317 24.8219 115.954 24.8219C115.527 24.8219 115.239 24.8486 115.09 24.9019C114.941 24.9552 114.791 25.0566 114.642 25.2059C114.514 25.3339 114.391 25.3979 114.274 25.3979H110.77C110.674 25.3979 110.589 25.3659 110.514 25.3019C110.45 25.2379 110.418 25.1526 110.418 25.0459C110.418 24.5659 110.605 24.0699 110.978 23.5579C111.362 23.0352 111.965 22.5979 112.786 22.2459C113.618 21.8832 114.669 21.7019 115.938 21.7019C117.005 21.7019 117.959 21.8459 118.802 22.1339C119.645 22.4112 120.301 22.8219 120.77 23.3659C121.25 23.8992 121.49 24.5286 121.49 25.2539C121.49 25.6379 121.399 25.9899 121.218 26.3099C121.037 26.6299 120.818 26.8912 120.562 27.0939C120.317 27.2859 120.098 27.4086 119.906 27.4619ZM127.324 21.8619C127.441 21.8619 127.543 21.9046 127.628 21.9899C127.713 22.0752 127.756 22.1766 127.756 22.2939V27.4779L131.244 22.1819C131.404 21.9686 131.612 21.8619 131.868 21.8619H134.46C134.577 21.8619 134.679 21.9046 134.764 21.9899C134.849 22.0752 134.892 22.1766 134.892 22.2939V32.6299C134.892 32.7472 134.849 32.8486 134.764 32.9339C134.679 33.0192 134.577 33.0619 134.46 33.0619H131.484C131.367 33.0619 131.265 33.0192 131.18 32.9339C131.095 32.8486 131.052 32.7472 131.052 32.6299V27.7979L127.564 32.7259C127.393 32.9499 127.18 33.0619 126.924 33.0619H124.348C124.231 33.0619 124.129 33.0192 124.044 32.9339C123.959 32.8486 123.916 32.7472 123.916 32.6299V22.2939C123.916 22.1766 123.959 22.0752 124.044 21.9899C124.129 21.9046 124.231 21.8619 124.348 21.8619H127.324ZM148.374 21.8619C148.491 21.8619 148.592 21.9046 148.678 21.9899C148.763 22.0752 148.806 22.1766 148.806 22.2939V32.6299C148.806 32.7472 148.763 32.8486 148.678 32.9339C148.592 33.0192 148.491 33.0619 148.374 33.0619H145.078C144.96 33.0619 144.859 33.0192 144.774 32.9339C144.688 32.8486 144.646 32.7472 144.646 32.6299V29.2219H141.446V32.6299C141.446 32.7472 141.403 32.8486 141.318 32.9339C141.232 33.0192 141.131 33.0619 141.014 33.0619H137.718C137.6 33.0619 137.499 33.0246 137.414 32.9499C137.328 32.8646 137.286 32.7579 137.286 32.6299V22.2939C137.286 22.1766 137.328 22.0752 137.414 21.9899C137.499 21.9046 137.6 21.8619 137.718 21.8619H141.014C141.131 21.8619 141.232 21.9046 141.318 21.9899C141.403 22.0752 141.446 22.1766 141.446 22.2939V25.5739H144.646V22.2939C144.646 22.1766 144.688 22.0752 144.774 21.9899C144.859 21.9046 144.96 21.8619 145.078 21.8619H148.374ZM154.335 32.5179C154.197 32.8806 153.957 33.0619 153.615 33.0619H150.591C150.495 33.0619 150.41 33.0299 150.335 32.9659C150.271 32.8912 150.239 32.8059 150.239 32.7099L150.255 32.6139L153.743 22.3899C153.786 22.2512 153.866 22.1286 153.983 22.0219C154.101 21.9152 154.261 21.8619 154.463 21.8619H158.911C159.114 21.8619 159.274 21.9152 159.391 22.0219C159.509 22.1286 159.589 22.2512 159.631 22.3899L163.119 32.6139L163.135 32.7099C163.135 32.8059 163.098 32.8912 163.023 32.9659C162.959 33.0299 162.879 33.0619 162.783 33.0619H159.759C159.418 33.0619 159.178 32.8806 159.039 32.5179L158.639 31.3979H154.735L154.335 32.5179ZM156.687 24.9499L155.551 28.2779H157.823L156.687 24.9499Z" fill="white"/>
</svg>
