<svg width="70" height="69" viewBox="0 0 70 69" fill="none" xmlns="http://www.w3.org/2000/svg">
<path d="M60.0361 0.553445C59.8393 0.860466 57.4776 4.46797 54.8208 8.59356L49.9597 16.0772L52.341 18.4182C53.6399 19.7039 54.7224 20.7593 54.7617 20.7593C54.8011 20.7593 55.2144 20.1452 55.667 19.4161C56.1197 18.6677 56.592 18.0153 56.7101 17.9385C56.9266 17.8234 57.6548 18.5909 59.3276 20.7017C61.7877 23.8679 63.677 27.7056 64.8185 31.9656C65.1924 33.328 65.5861 34.5369 65.6845 34.6328C65.9403 34.8823 66.5504 34.6328 66.3733 34.3642C66.2946 34.2107 66.3142 34.1915 66.4717 34.2682C66.9834 34.5752 68.8334 29.5094 69.3647 26.3624C69.9748 22.7165 69.4238 18.5142 67.7509 14.5037C67.3967 13.621 66.0781 10.9538 64.8579 8.61275C63.6377 6.27172 62.3388 3.48934 61.9845 2.43395C61.0989 -0.17573 60.784 -0.482752 60.0361 0.553445Z" fill="#D74307"/>
<path d="M26.6382 9.84085C14.1607 11.5103 4.0645 20.1836 0.974647 31.908C-2.98116 46.9904 5.42246 62.3799 20.4191 67.4649C24.1387 68.7314 25.9297 69 30.4759 69C33.9003 69 34.8056 68.9424 36.4981 68.5778C42.7566 67.2538 47.6767 64.6633 52.0261 60.4034C56.1394 56.3738 58.7176 52.0179 60.0952 46.6642C60.8431 43.7667 61.0399 41.7327 60.9218 38.2211C60.7643 33.7309 59.9771 30.5648 58.0287 26.5543C56.9266 24.3092 54.9586 21.2582 54.7027 21.4117C54.6043 21.4693 51.0815 26.9381 46.8895 33.5582C38.4859 46.8177 37.9939 47.451 35.396 48.7366C34.0184 49.4082 31.8929 49.9263 30.4759 49.9263C27.8977 49.9263 24.8472 48.6598 22.9776 46.8369C17.0931 41.1186 19.6319 31.5818 27.6222 29.2791C29.1376 28.8378 31.9716 28.8378 33.3886 29.2599C34.845 29.7013 36.5375 30.6224 37.6987 31.601C38.2497 32.0615 38.7417 32.3877 38.8205 32.311C38.8992 32.2534 38.8992 32.3302 38.8205 32.522C38.7614 32.6947 38.7417 32.8483 38.8008 32.8483C38.9385 32.8483 49.5661 16.4226 49.5661 16.2115C49.5661 16.1348 49.0544 15.7126 48.4246 15.2713C44.7837 12.7384 40.8672 11.0881 36.3801 10.1862C34.1955 9.74491 28.7637 9.55302 26.6382 9.84085ZM31.0663 13.4292C31.0663 13.5059 30.0626 13.7554 28.8621 13.9856C21.0095 15.4824 14.6527 18.9364 10.933 23.676C8.15807 27.2067 6.24905 31.9656 5.63895 36.8203C5.52087 37.799 5.34374 38.6049 5.24534 38.6049C5.04853 38.6049 5.04853 38.5281 5.30438 35.9952C5.9932 28.9529 8.15807 24.0406 12.232 20.2412C16.1681 16.5569 21.0489 14.5421 28.4094 13.5827C30.8892 13.2565 31.0663 13.2373 31.0663 13.4292ZM31.4599 16.3267C31.4599 16.4226 30.9876 16.5953 30.4365 16.7296C28.4881 17.171 24.6898 18.4758 22.6627 19.4161C16.8372 22.1025 12.783 26.0938 10.4804 31.3899C9.61443 33.3855 8.74849 36.3022 8.51232 38.0292C8.4336 38.5473 8.31551 38.9887 8.21711 38.9887C7.98094 38.9887 8.00062 38.72 8.33519 36.4366C8.98465 32.2534 10.1458 29.0297 12.0548 26.2473C15.3809 21.3541 20.734 18.2264 28.311 16.7105C31.3615 16.1156 31.4599 16.0964 31.4599 16.3267ZM31.2631 19.7615C31.2631 19.8382 30.2791 20.2028 29.0982 20.5482C24.0994 22.0449 19.5925 24.7698 17.034 27.8208C14.7708 30.5072 12.9405 34.1531 12.232 37.3768C12.0548 38.1636 11.8383 38.7968 11.7399 38.7968C11.5235 38.7968 11.5235 38.7776 11.9761 36.379C13.0389 30.584 15.6761 26.4392 20.1436 23.5417C22.6627 21.9106 25.044 20.9704 28.9014 20.1069C31.3025 19.5504 31.2631 19.5696 31.2631 19.7615ZM31.5583 23.0236C31.4402 23.1195 30.4759 23.4649 29.3934 23.7911C22.5052 25.8827 18.1361 29.778 16.0894 35.669C15.7548 36.5901 15.4399 37.7222 15.3809 38.1827C15.3218 38.6241 15.184 39.0462 15.066 39.123C14.7708 39.2957 15.066 37.1657 15.617 35.0358C16.9159 30.0275 20.36 26.3049 25.4967 24.3668C27.7009 23.5417 32.0897 22.563 31.5583 23.0236ZM45.8268 41.867C44.6262 49.1588 40.021 53.6681 32.011 55.4143C29.2557 56.0284 28.6653 55.9132 30.9482 55.2224C35.2779 53.9176 38.4465 52.1138 40.946 49.5809C43.2486 47.2399 44.7443 44.4383 45.5512 41.0035C45.9842 39.1422 46.181 39.737 45.8268 41.867ZM52.6166 42.577C52.2033 45.3977 51.5341 47.6428 50.4714 49.8496C49.2709 52.3249 48.1884 53.8025 46.2204 55.683C42.7566 59.0026 38.3481 60.9983 31.9913 62.188C29.5903 62.6485 29.3344 62.6677 29.5903 62.4182C29.7083 62.3223 30.7908 61.9769 32.011 61.6507C37.9151 60.0196 42.5598 57.5635 45.8464 54.3397C48.9953 51.2312 51.3176 46.7602 52.2426 41.9629C52.6559 39.8138 52.7543 39.526 52.8724 40.0249C52.9118 40.2168 52.7937 41.3681 52.6166 42.577ZM49.0937 42.174C47.4996 51.1928 42.0678 56.4889 32.1684 58.6572C30.9679 58.9067 29.9642 59.0794 29.9051 59.041C29.7674 58.9067 29.8264 58.8875 32.2471 58.1199C40.1194 55.6254 44.9805 51.4422 47.657 44.8413C48.0507 43.8818 48.5033 42.5002 48.6804 41.7711C49.1134 39.9865 49.1921 39.7946 49.3102 40.1016C49.3693 40.236 49.2709 41.157 49.0937 42.174ZM55.6671 43.1143C54.683 52.3825 50.8256 58.5037 43.7603 62.0536C40.5917 63.6463 37.4428 64.529 32.6801 65.1622C30.1216 65.5076 29.728 65.5268 30.0035 65.2966C30.1019 65.2198 31.0269 64.9895 32.0503 64.7977C36.3801 64.0109 41.1624 62.2455 44.3113 60.2307C46.4369 58.8875 49.4086 56.1243 50.7075 54.2822C53.0692 50.9433 54.9192 46.0502 55.3718 41.9629C55.4506 41.3297 55.549 40.6389 55.6277 40.4278C55.8835 39.6411 55.9032 40.9459 55.6671 43.1143Z" fill="#D74307"/>
<path d="M28.6259 34.6712C26.8153 35.2852 25.536 36.993 25.3983 38.9695C25.2999 40.3703 25.6148 41.464 26.402 42.481C27.819 44.2848 30.5546 44.8988 32.7588 43.901C36.6949 42.1164 36.5769 36.5325 32.562 34.7479C31.5977 34.3258 29.728 34.2874 28.6259 34.6712Z" fill="#D74307"/>
</svg>
