<svg width="466" height="86" viewBox="0 0 466 86" fill="none" xmlns="http://www.w3.org/2000/svg">
<path d="M131.596 35.632C131.596 38.3973 130.961 40.936 129.692 43.248C128.423 45.5147 126.473 47.3507 123.844 48.756C121.215 50.1613 117.951 50.864 114.052 50.864H106.844V68H95.216V20.264H114.052C117.86 20.264 121.079 20.9213 123.708 22.236C126.337 23.5507 128.309 25.364 129.624 27.676C130.939 29.988 131.596 32.64 131.596 35.632ZM113.168 41.616C115.389 41.616 117.044 41.0947 118.132 40.052C119.22 39.0093 119.764 37.536 119.764 35.632C119.764 33.728 119.22 32.2547 118.132 31.212C117.044 30.1693 115.389 29.648 113.168 29.648H106.844V41.616H113.168ZM149.278 17.68V68H137.65V17.68H149.278ZM155.392 48.96C155.392 45.0613 156.118 41.6387 157.568 38.692C159.064 35.7453 161.082 33.4787 163.62 31.892C166.159 30.3053 168.992 29.512 172.12 29.512C174.795 29.512 177.13 30.056 179.124 31.144C181.164 32.232 182.728 33.66 183.816 35.428V30.056H195.444V68H183.816V62.628C182.683 64.396 181.096 65.824 179.056 66.912C177.062 68 174.727 68.544 172.052 68.544C168.97 68.544 166.159 67.7507 163.62 66.164C161.082 64.532 159.064 62.2427 157.568 59.296C156.118 56.304 155.392 52.8587 155.392 48.96ZM183.816 49.028C183.816 46.1267 183 43.8373 181.368 42.16C179.782 40.4827 177.832 39.644 175.52 39.644C173.208 39.644 171.236 40.4827 169.604 42.16C168.018 43.792 167.224 46.0587 167.224 48.96C167.224 51.8613 168.018 54.1733 169.604 55.896C171.236 57.5733 173.208 58.412 175.52 58.412C177.832 58.412 179.782 57.5733 181.368 55.896C183 54.2187 183.816 51.9293 183.816 49.028ZM219.293 68.544C215.983 68.544 213.037 67.9773 210.453 66.844C207.869 65.7107 205.829 64.1693 204.333 62.22C202.837 60.2253 201.998 58.004 201.817 55.556H213.309C213.445 56.8707 214.057 57.936 215.145 58.752C216.233 59.568 217.57 59.976 219.157 59.976C220.607 59.976 221.718 59.704 222.489 59.16C223.305 58.5707 223.713 57.8227 223.713 56.916C223.713 55.828 223.146 55.0347 222.013 54.536C220.879 53.992 219.043 53.4027 216.505 52.768C213.785 52.1333 211.518 51.476 209.705 50.796C207.891 50.0707 206.327 48.96 205.013 47.464C203.698 45.9227 203.041 43.86 203.041 41.276C203.041 39.1 203.63 37.128 204.809 35.36C206.033 33.5467 207.801 32.1187 210.113 31.076C212.47 30.0333 215.258 29.512 218.477 29.512C223.237 29.512 226.977 30.6907 229.697 33.048C232.462 35.4053 234.049 38.5333 234.457 42.432H223.713C223.531 41.1173 222.942 40.0747 221.945 39.304C220.993 38.5333 219.723 38.148 218.137 38.148C216.777 38.148 215.734 38.42 215.009 38.964C214.283 39.4627 213.921 40.1653 213.921 41.072C213.921 42.16 214.487 42.976 215.621 43.52C216.799 44.064 218.613 44.608 221.061 45.152C223.871 45.8773 226.161 46.6027 227.929 47.328C229.697 48.008 231.238 49.1413 232.553 50.728C233.913 52.2693 234.615 54.3547 234.661 56.984C234.661 59.2053 234.026 61.2 232.757 62.968C231.533 64.6907 229.742 66.0507 227.385 67.048C225.073 68.0453 222.375 68.544 219.293 68.544ZM262.923 58.14V68H257.007C252.791 68 249.504 66.98 247.147 64.94C244.789 62.8547 243.611 59.4773 243.611 54.808V39.712H238.987V30.056H243.611V20.808H255.239V30.056H262.855V39.712H255.239V54.944C255.239 56.0773 255.511 56.8933 256.055 57.392C256.599 57.8907 257.505 58.14 258.775 58.14H262.923ZM275.248 26.112C273.208 26.112 271.53 25.5227 270.216 24.344C268.946 23.12 268.312 21.624 268.312 19.856C268.312 18.0427 268.946 16.5467 270.216 15.368C271.53 14.144 273.208 13.532 275.248 13.532C277.242 13.532 278.874 14.144 280.144 15.368C281.458 16.5467 282.116 18.0427 282.116 19.856C282.116 21.624 281.458 23.12 280.144 24.344C278.874 25.5227 277.242 26.112 275.248 26.112ZM281.028 30.056V68H269.4V30.056H281.028ZM312.574 29.648C317.017 29.648 320.553 31.0987 323.182 34C325.857 36.856 327.194 40.8 327.194 45.832V68H315.634V47.396C315.634 44.8573 314.977 42.8853 313.662 41.48C312.348 40.0747 310.58 39.372 308.358 39.372C306.137 39.372 304.369 40.0747 303.054 41.48C301.74 42.8853 301.082 44.8573 301.082 47.396V68H289.454V30.056H301.082V35.088C302.261 33.4107 303.848 32.096 305.842 31.144C307.837 30.1467 310.081 29.648 312.574 29.648ZM358.463 68L346.903 52.088V68H335.275V17.68H346.903V45.492L358.395 30.056H372.743L356.967 49.096L372.879 68H358.463ZM374.998 48.96C374.998 45.0613 375.723 41.6387 377.174 38.692C378.67 35.7453 380.687 33.4787 383.226 31.892C385.764 30.3053 388.598 29.512 391.726 29.512C394.4 29.512 396.735 30.056 398.73 31.144C400.77 32.232 402.334 33.66 403.422 35.428V30.056H415.05V68H403.422V62.628C402.288 64.396 400.702 65.824 398.662 66.912C396.667 68 394.332 68.544 391.658 68.544C388.575 68.544 385.764 67.7507 383.226 66.164C380.687 64.532 378.67 62.2427 377.174 59.296C375.723 56.304 374.998 52.8587 374.998 48.96ZM403.422 49.028C403.422 46.1267 402.606 43.8373 400.974 42.16C399.387 40.4827 397.438 39.644 395.126 39.644C392.814 39.644 390.842 40.4827 389.21 42.16C387.623 43.792 386.83 46.0587 386.83 48.96C386.83 51.8613 387.623 54.1733 389.21 55.896C390.842 57.5733 392.814 58.412 395.126 58.412C397.438 58.412 399.387 57.5733 400.974 55.896C402.606 54.2187 403.422 51.9293 403.422 49.028Z" fill="#D74307"/>
<path d="M62.1011 9.55344C61.8975 9.86046 59.4546 13.468 56.7064 17.5936L51.678 25.0772L54.1413 27.4182C55.4849 28.7039 56.6046 29.7593 56.6453 29.7593C56.686 29.7593 57.1135 29.1452 57.5817 28.4161C58.05 27.6677 58.5385 27.0153 58.6607 26.9385C58.8846 26.8234 59.6378 27.5909 61.3682 29.7017C63.9129 32.8679 65.8672 36.7056 67.048 40.9656C67.4348 42.328 67.8419 43.5369 67.9437 43.6328C68.2084 43.8823 68.8394 43.6328 68.6562 43.3642C68.5748 43.2106 68.5951 43.1915 68.758 43.2682C69.2873 43.5752 71.2009 38.5094 71.7506 35.3624C72.3816 31.7165 71.8116 27.5142 70.0812 23.5037C69.7148 22.621 68.3509 19.9538 67.0887 17.6127C65.8265 15.2717 64.4829 12.4893 64.1165 11.4339C63.2004 8.82426 62.8747 8.51725 62.1011 9.55344Z" fill="#D74307"/>
<path d="M27.5544 18.8408C14.6477 20.5103 4.2043 29.1836 1.00817 40.908C-3.08369 55.9904 5.60897 71.3799 21.1214 76.4649C24.969 77.7314 26.8215 78 31.5241 78C35.0663 78 36.0028 77.9424 37.7535 77.5778C44.2272 76.2538 49.3166 73.6633 53.8156 69.4034C58.0703 65.3738 60.7371 61.0179 62.1622 55.6642C62.9358 52.7667 63.1393 50.7327 63.0172 47.2211C62.8543 42.7309 62.04 39.5648 60.0246 35.5543C58.8846 33.3092 56.8489 30.2582 56.5842 30.4117C56.4824 30.4693 52.8384 35.9381 48.5023 42.5582C39.8096 55.8177 39.3007 56.4509 36.6135 57.7366C35.1884 58.4082 32.9898 58.9263 31.5241 58.9263C28.8573 58.9263 25.7018 57.6598 23.7679 55.8369C17.681 50.1186 20.3071 40.5818 28.5723 38.2791C30.1398 37.8378 33.0713 37.8378 34.537 38.2599C36.0435 38.7013 37.7942 39.6223 38.9953 40.601C39.5653 41.0615 40.0743 41.3877 40.1557 41.311C40.2371 41.2534 40.2371 41.3302 40.1557 41.522C40.0946 41.6947 40.0743 41.8483 40.1353 41.8483C40.2778 41.8483 51.2709 25.4226 51.2709 25.2115C51.2709 25.1348 50.7416 24.7126 50.0902 24.2713C46.324 21.7384 42.2729 20.0881 37.6314 19.1862C35.3717 18.7449 29.753 18.553 27.5544 18.8408ZM32.1348 22.4292C32.1348 22.5059 31.0966 22.7554 29.8548 22.9856C21.7321 24.4824 15.1566 27.9364 11.3091 32.676C8.43867 36.2067 6.46399 40.9656 5.8329 45.8203C5.71076 46.799 5.52754 47.6049 5.42575 47.6049C5.22218 47.6049 5.22218 47.5281 5.48682 44.9952C6.19934 37.9529 8.43867 33.0406 12.6527 29.2412C16.7242 25.5569 21.7728 23.5421 29.3866 22.5827C31.9516 22.2565 32.1348 22.2373 32.1348 22.4292ZM32.542 25.3267C32.542 25.4226 32.0534 25.5953 31.4834 25.7296C29.468 26.171 25.539 27.4758 23.4422 28.4161C17.4163 31.1025 13.2227 35.0938 10.8409 40.3899C9.94512 42.3855 9.04939 45.3022 8.8051 47.0292C8.72367 47.5473 8.60153 47.9887 8.49974 47.9887C8.25545 47.9887 8.27581 47.72 8.62188 45.4366C9.29368 41.2534 10.4948 38.0297 12.4695 35.2473C15.9099 30.3541 21.4471 27.2264 29.2848 25.7104C32.4402 25.1156 32.542 25.0964 32.542 25.3267ZM32.3384 28.7615C32.3384 28.8382 31.3205 29.2028 30.0991 29.5482C24.9283 31.0449 20.2664 33.7698 17.6199 36.8208C15.2788 39.5072 13.3855 43.1531 12.6527 46.3768C12.4695 47.1636 12.2455 47.7968 12.1437 47.7968C11.9198 47.7968 11.9198 47.7776 12.388 45.379C13.4873 39.584 16.2152 35.4392 20.8364 32.5417C23.4422 30.9106 25.9054 29.9704 29.8955 29.1069C32.3791 28.5504 32.3384 28.5696 32.3384 28.7615ZM32.6438 32.0236C32.5216 32.1195 31.5241 32.4649 30.4044 32.7911C23.2793 34.8827 18.7599 38.778 16.6427 44.669C16.2967 45.5901 15.9709 46.7222 15.9099 47.1827C15.8488 47.6241 15.7063 48.0462 15.5842 48.123C15.2788 48.2957 15.5842 46.1657 16.1542 44.0358C17.4978 39.0275 21.0603 35.3049 26.3736 33.3668C28.6537 32.5417 33.1934 31.563 32.6438 32.0236ZM47.403 50.867C46.1612 58.1588 41.3975 62.6681 33.112 64.4143C30.2619 65.0284 29.6512 64.9132 32.0127 64.2224C36.4913 62.9176 39.7689 61.1138 42.3543 58.5809C44.7361 56.2399 46.2833 53.4383 47.118 50.0035C47.5658 48.1422 47.7694 48.737 47.403 50.867ZM54.4263 51.577C53.9988 54.3977 53.3066 56.6428 52.2073 58.8496C50.9655 61.3249 49.8459 62.8024 47.8101 64.683C44.2272 68.0026 39.6671 69.9983 33.0916 71.188C30.608 71.6485 30.3434 71.6677 30.608 71.4182C30.7302 71.3223 31.8498 70.9769 33.112 70.6507C39.2192 69.0196 44.0236 66.5635 47.4233 63.3397C50.6805 60.2311 53.0827 55.7601 54.0395 50.9629C54.467 48.8138 54.5688 48.526 54.691 49.0249C54.7317 49.2168 54.6095 50.3681 54.4263 51.577ZM50.7823 51.174C49.1334 60.1928 43.5147 65.4889 33.2748 67.6572C32.033 67.9067 30.9948 68.0794 30.9337 68.041C30.7912 67.9067 30.8523 67.8875 33.3563 67.1199C41.4993 64.6254 46.5276 60.4422 49.2962 53.8413C49.7034 52.8818 50.1716 51.5002 50.3548 50.7711C50.8027 48.9865 50.8841 48.7946 51.0062 49.1016C51.0673 49.2359 50.9655 50.157 50.7823 51.174ZM57.5817 52.1143C56.5639 61.3825 52.5738 67.5037 45.2654 71.0536C41.9879 72.6463 38.7307 73.529 33.8041 74.1622C31.1577 74.5076 30.7505 74.5268 31.0355 74.2966C31.1373 74.2198 32.0941 73.9895 33.1527 73.7976C37.6314 73.0109 42.5782 71.2455 45.8354 69.2307C48.034 67.8875 51.108 65.1243 52.4516 63.2822C54.8945 59.9433 56.8081 55.0502 57.2764 50.9629C57.3578 50.3297 57.4596 49.6389 57.541 49.4278C57.8057 48.6411 57.826 49.9459 57.5817 52.1143Z" fill="#D74307"/>
<path d="M29.6105 43.6712C27.7376 44.2852 26.4144 45.993 26.2719 47.9695C26.1701 49.3703 26.4958 50.464 27.3101 51.481C28.7758 53.2848 31.6055 53.8988 33.8856 52.901C37.9571 51.1164 37.8349 45.5325 33.682 43.7479C32.6845 43.3258 30.7505 43.2874 29.6105 43.6712Z" fill="#D74307"/>
</svg>
