<svg width="664" height="173" viewBox="0 0 664 173" fill="none" xmlns="http://www.w3.org/2000/svg">
<path d="M236.312 109.304C236.312 113.208 235.416 116.792 233.624 120.056C231.832 123.256 229.08 125.848 225.368 127.832C221.656 129.816 217.048 130.808 211.544 130.808H201.368V155H184.952V87.608H211.544C216.92 87.608 221.464 88.536 225.176 90.392C228.888 92.248 231.672 94.808 233.528 98.072C235.384 101.336 236.312 105.08 236.312 109.304ZM210.296 117.752C213.432 117.752 215.768 117.016 217.304 115.544C218.84 114.072 219.608 111.992 219.608 109.304C219.608 106.616 218.84 104.536 217.304 103.064C215.768 101.592 213.432 100.856 210.296 100.856H201.368V117.752H210.296ZM261.274 83.96V155H244.858V83.96H261.274ZM269.907 128.12C269.907 122.616 270.931 117.784 272.979 113.624C275.091 109.464 277.939 106.264 281.523 104.024C285.107 101.784 289.107 100.664 293.523 100.664C297.299 100.664 300.595 101.432 303.411 102.968C306.291 104.504 308.499 106.52 310.035 109.016V101.432H326.451V155H310.035V147.416C308.435 149.912 306.195 151.928 303.315 153.464C300.499 155 297.203 155.768 293.427 155.768C289.075 155.768 285.107 154.648 281.523 152.408C277.939 150.104 275.091 146.872 272.979 142.712C270.931 138.488 269.907 133.624 269.907 128.12ZM310.035 128.216C310.035 124.12 308.883 120.888 306.579 118.52C304.339 116.152 301.587 114.968 298.323 114.968C295.059 114.968 292.275 116.152 289.971 118.52C287.731 120.824 286.611 124.024 286.611 128.12C286.611 132.216 287.731 135.48 289.971 137.912C292.275 140.28 295.059 141.464 298.323 141.464C301.587 141.464 304.339 140.28 306.579 137.912C308.883 135.544 310.035 132.312 310.035 128.216ZM360.119 155.768C355.447 155.768 351.287 154.968 347.639 153.368C343.991 151.768 341.111 149.592 338.999 146.84C336.887 144.024 335.703 140.888 335.447 137.432H351.671C351.863 139.288 352.727 140.792 354.263 141.944C355.799 143.096 357.687 143.672 359.927 143.672C361.975 143.672 363.543 143.288 364.631 142.52C365.783 141.688 366.359 140.632 366.359 139.352C366.359 137.816 365.559 136.696 363.959 135.992C362.359 135.224 359.767 134.392 356.183 133.496C352.343 132.6 349.143 131.672 346.583 130.712C344.023 129.688 341.815 128.12 339.959 126.008C338.103 123.832 337.175 120.92 337.175 117.272C337.175 114.2 338.007 111.416 339.671 108.92C341.399 106.36 343.895 104.344 347.159 102.872C350.487 101.4 354.423 100.664 358.967 100.664C365.687 100.664 370.967 102.328 374.807 105.656C378.711 108.984 380.951 113.4 381.527 118.904H366.359C366.103 117.048 365.271 115.576 363.863 114.488C362.519 113.4 360.727 112.856 358.487 112.856C356.567 112.856 355.095 113.24 354.071 114.008C353.047 114.712 352.535 115.704 352.535 116.984C352.535 118.52 353.335 119.672 354.935 120.44C356.599 121.208 359.159 121.976 362.615 122.744C366.583 123.768 369.815 124.792 372.311 125.816C374.807 126.776 376.983 128.376 378.839 130.616C380.759 132.792 381.751 135.736 381.815 139.448C381.815 142.584 380.919 145.4 379.127 147.896C377.399 150.328 374.871 152.248 371.543 153.656C368.279 155.064 364.471 155.768 360.119 155.768ZM421.714 141.08V155H413.362C407.41 155 402.77 153.56 399.442 150.68C396.114 147.736 394.45 142.968 394.45 136.376V115.064H387.922V101.432H394.45V88.376H410.866V101.432H421.618V115.064H410.866V136.568C410.866 138.168 411.25 139.32 412.018 140.024C412.786 140.728 414.066 141.08 415.858 141.08H421.714ZM439.114 95.864C436.234 95.864 433.866 95.032 432.01 93.368C430.218 91.64 429.322 89.528 429.322 87.032C429.322 84.472 430.218 82.36 432.01 80.696C433.866 78.968 436.234 78.104 439.114 78.104C441.93 78.104 444.234 78.968 446.026 80.696C447.882 82.36 448.81 84.472 448.81 87.032C448.81 89.528 447.882 91.64 446.026 93.368C444.234 95.032 441.93 95.864 439.114 95.864ZM447.274 101.432V155H430.858V101.432H447.274ZM491.811 100.856C498.083 100.856 503.075 102.904 506.787 107C510.563 111.032 512.451 116.6 512.451 123.704V155H496.131V125.912C496.131 122.328 495.203 119.544 493.347 117.56C491.491 115.576 488.995 114.584 485.859 114.584C482.723 114.584 480.227 115.576 478.371 117.56C476.515 119.544 475.587 122.328 475.587 125.912V155H459.171V101.432H475.587V108.536C477.251 106.168 479.491 104.312 482.307 102.968C485.123 101.56 488.291 100.856 491.811 100.856ZM556.594 155L540.274 132.536V155H523.858V83.96H540.274V123.224L556.498 101.432H576.754L554.482 128.312L576.946 155H556.594ZM579.938 128.12C579.938 122.616 580.962 117.784 583.01 113.624C585.122 109.464 587.97 106.264 591.554 104.024C595.138 101.784 599.138 100.664 603.554 100.664C607.33 100.664 610.626 101.432 613.442 102.968C616.322 104.504 618.53 106.52 620.066 109.016V101.432H636.482V155H620.066V147.416C618.466 149.912 616.226 151.928 613.346 153.464C610.53 155 607.234 155.768 603.458 155.768C599.106 155.768 595.138 154.648 591.554 152.408C587.97 150.104 585.122 146.872 583.01 142.712C580.962 138.488 579.938 133.624 579.938 128.12ZM620.066 128.216C620.066 124.12 618.914 120.888 616.61 118.52C614.37 116.152 611.618 114.968 608.354 114.968C605.09 114.968 602.306 116.152 600.002 118.52C597.762 120.824 596.642 124.024 596.642 128.12C596.642 132.216 597.762 135.48 600.002 137.912C602.306 140.28 605.09 141.464 608.354 141.464C611.618 141.464 614.37 140.28 616.61 137.912C618.914 135.544 620.066 132.312 620.066 128.216Z" fill="white"/>
<path d="M145.865 1.29993C145.387 2.02107 139.649 10.4945 133.194 20.1849L121.383 37.7627L127.169 43.2614C130.325 46.2812 132.955 48.7602 133.051 48.7602C133.146 48.7602 134.15 47.3179 135.25 45.6052C136.35 43.8474 137.497 42.3149 137.784 42.1347C138.31 41.8642 140.08 43.6671 144.144 48.6249C150.121 56.0617 154.711 65.076 157.485 75.0819C158.393 78.2819 159.35 81.1214 159.589 81.3468C160.21 81.9327 161.693 81.3468 161.262 80.7158C161.071 80.3552 161.119 80.3102 161.501 80.4904C162.745 81.2116 167.239 69.3127 168.53 61.921C170.013 53.3574 168.674 43.4868 164.609 34.0669C163.749 31.9936 160.545 25.7286 157.58 20.2299C154.616 14.7312 151.46 8.19586 150.599 5.71693C148.447 -0.412788 147.682 -1.13393 145.865 1.29993Z" fill="white"/>
<path d="M64.7208 23.1141C34.4051 27.0353 9.87522 47.4076 2.36803 74.9463C-7.24309 110.372 13.1746 146.52 49.6107 158.464C58.6481 161.438 62.9994 162.069 74.045 162.069C82.3651 162.069 84.5646 161.934 88.6768 161.078C103.882 157.968 115.837 151.883 126.404 141.877C136.398 132.412 142.662 122.181 146.009 109.606C147.826 102.8 148.304 98.0228 148.017 89.7748C147.635 79.228 145.722 71.7913 140.988 62.3713C138.31 57.098 133.529 49.9316 132.907 50.2922C132.668 50.4274 124.109 63.2728 113.924 78.8224C93.5063 109.967 92.3109 111.454 85.9991 114.474C82.6519 116.051 77.4878 117.268 74.045 117.268C67.781 117.268 60.3695 114.294 55.8269 110.012C41.5298 96.5805 47.6981 74.18 67.1116 68.7715C70.7935 67.7348 77.679 67.7348 81.1218 68.7264C84.6602 69.763 88.7725 71.9265 91.5936 74.2251C92.9325 75.3068 94.1279 76.073 94.3192 75.8928C94.5104 75.7575 94.5104 75.9378 94.3192 76.3885C94.1757 76.7942 94.1279 77.1548 94.2714 77.1548C94.6061 77.1548 120.427 38.5736 120.427 38.0778C120.427 37.8975 119.184 36.906 117.654 35.8693C108.808 29.9199 99.2921 26.0437 88.3899 23.9254C83.0823 22.8887 69.8849 22.438 64.7208 23.1141ZM75.4795 31.5425C75.4795 31.7227 73.0408 32.3087 70.124 32.8495C51.0452 36.3651 35.6005 44.478 26.5632 55.6106C19.8211 63.9038 15.1829 75.0815 13.7005 86.4845C13.4136 88.7832 12.9833 90.6762 12.7442 90.6762C12.266 90.6762 12.266 90.4959 12.8877 84.5465C14.5612 68.0052 19.8211 56.467 29.7191 47.5428C39.2824 38.8891 51.1409 34.1566 69.0242 31.903C75.0491 31.1368 75.4795 31.0918 75.4795 31.5425ZM76.4358 38.3483C76.4358 38.5736 75.2882 38.9792 73.9493 39.2947C69.2155 40.3314 59.9869 43.3962 55.0618 45.6048C40.9081 51.9147 31.0579 61.2896 25.4634 73.7293C23.3595 78.4168 21.2555 85.2676 20.6817 89.324C20.4905 90.541 20.2036 91.5776 19.9645 91.5776C19.3907 91.5776 19.4385 90.9466 20.2514 85.5831C21.8293 75.7575 24.6505 68.1855 29.2887 61.6502C37.3697 50.157 50.3758 42.8103 68.7852 39.2497C76.1967 37.8525 76.4358 37.8074 76.4358 38.3483ZM75.9576 46.416C75.9576 46.5963 73.5668 47.4527 70.6978 48.264C58.5524 51.7795 47.6024 58.1797 41.3863 65.346C35.8874 71.656 31.4405 80.2196 29.7191 87.7916C29.2887 89.6395 28.7627 91.1269 28.5237 91.1269C27.9977 91.1269 27.9977 91.0818 29.0975 85.4479C31.6795 71.8363 38.087 62.1009 48.9413 55.2951C55.0618 51.464 60.8476 49.2555 70.2197 47.2273C76.0533 45.9202 75.9576 45.9653 75.9576 46.416ZM76.6749 54.0782C76.388 54.3035 74.045 55.1148 71.4151 55.881C54.6793 60.7938 44.064 69.9433 39.0911 83.7803C38.2782 85.9437 37.5132 88.6029 37.3697 89.6846C37.2263 90.7213 36.8915 91.7128 36.6046 91.8931C35.8874 92.2988 36.6046 87.2958 37.9435 82.2929C41.0994 70.5293 49.4673 61.7854 61.9474 57.2332C67.3028 55.2951 77.9659 52.9965 76.6749 54.0782ZM111.342 98.3383C108.425 115.465 97.236 126.057 77.7747 130.159C71.0804 131.601 69.6459 131.331 75.1926 129.708C85.7122 126.643 93.4107 122.406 99.4834 116.457C105.078 110.958 108.712 104.378 110.672 96.3101C111.724 91.9382 112.203 93.3354 111.342 98.3383ZM127.839 100.006C126.834 106.631 125.209 111.905 122.627 117.088C119.71 122.902 117.08 126.373 112.298 130.79C103.882 138.587 93.1716 143.275 77.7268 146.069C71.8932 147.151 71.2716 147.196 71.8932 146.61C72.1801 146.384 74.81 145.573 77.7747 144.807C92.1196 140.976 103.404 135.207 111.39 127.635C119.04 120.333 124.683 109.832 126.93 98.5637C127.934 93.5157 128.173 92.8396 128.46 94.0115C128.556 94.4622 128.269 97.1665 127.839 100.006ZM119.279 99.0595C115.406 120.243 102.209 132.683 78.1572 137.776C75.2404 138.362 72.8018 138.767 72.6583 138.677C72.3236 138.362 72.467 138.317 78.3485 136.514C97.4751 130.655 109.286 120.829 115.789 105.324C116.745 103.071 117.845 99.8257 118.275 98.113C119.327 93.9213 119.518 93.4706 119.805 94.1918C119.949 94.5073 119.71 96.6707 119.279 99.0595ZM135.25 101.268C132.859 123.037 123.487 137.415 106.321 145.753C98.6227 149.494 90.972 151.568 79.4004 153.055C73.1843 153.866 72.228 153.911 72.8974 153.371C73.1365 153.19 75.3838 152.649 77.8703 152.199C88.3899 150.351 100.009 146.204 107.66 141.472C112.824 138.317 120.044 131.826 123.2 127.5C128.938 119.657 133.433 108.164 134.533 98.5637C134.724 97.0763 134.963 95.4538 135.154 94.958C135.776 93.11 135.824 96.1749 135.25 101.268Z" fill="white"/>
<path d="M69.5502 81.436C65.1511 82.8783 62.043 86.8896 61.7083 91.532C61.4692 94.8222 62.2343 97.3913 64.147 99.7801C67.5897 104.017 74.2362 105.459 79.5917 103.115C89.155 98.9237 88.8681 85.8079 79.1135 81.6163C76.7705 80.6247 72.2279 80.5346 69.5502 81.436Z" fill="white"/>
</svg>
